<svg width="414" height="532" viewBox="0 0 414 532" fill="none" xmlns="http://www.w3.org/2000/svg">
<g clip-path="url(#clip0_1_10)">
<rect width="414" height="532" fill="#7B6BBC"/>
<g clip-path="url(#clip1_1_10)">
<path d="M226.571 61.4781C221.351 53.3351 212.461 48.4729 202.79 48.4729C193.119 48.4729 184.229 53.3351 179.01 61.4781L166.432 81.0997C164.345 84.3547 163.382 88.116 163.647 91.9738C163.912 95.8324 165.38 99.4256 167.892 102.367C170.407 105.306 173.729 107.315 177.5 108.177C181.271 109.039 185.137 108.671 188.679 107.115L188.916 107.009C197.828 103.17 208.012 103.205 216.901 107.115C219.194 108.123 221.623 108.632 224.074 108.632C225.407 108.632 226.748 108.481 228.077 108.178C231.848 107.317 235.17 105.308 237.685 102.368C240.198 99.4291 241.668 95.8351 241.933 91.9756C242.199 88.116 241.236 84.3556 239.149 81.0988L226.571 61.4781Z" fill="white"/>
<path d="M169.82 61.4524C173.562 60.0152 176.404 56.9999 177.824 52.9616C179.175 49.1189 179.065 44.7806 177.511 40.745C175.957 36.712 173.131 33.4197 169.552 31.4736C165.792 29.4301 161.662 29.0973 157.926 30.5373C150.411 33.4268 146.962 42.7141 150.239 51.2447C152.857 58.0345 158.963 62.3206 165.136 62.3206C166.712 62.3206 168.292 62.041 169.82 61.4524Z" fill="white"/>
<path d="M194.225 46.0798C203.62 46.0798 211.264 37.3713 211.264 26.6671C211.264 15.9603 203.62 7.25 194.225 7.25C184.831 7.25 177.188 15.9603 177.188 26.6671C177.188 37.3713 184.831 46.0798 194.225 46.0798Z" fill="white"/>
<path d="M223.651 50.8491H223.652C225.098 51.3288 226.572 51.558 228.04 51.558C234.892 51.558 241.569 46.571 244.117 38.9068C245.585 34.495 245.488 29.8302 243.846 25.7724C242.127 21.5243 238.942 18.441 234.876 17.0896C230.809 15.7381 226.412 16.3019 222.492 18.6755C218.748 20.9429 215.878 24.6219 214.413 29.0336C211.32 38.3404 215.464 48.1268 223.651 50.8491Z" fill="white"/>
<path d="M259.534 48.5835L259.531 48.5809C253.052 43.7947 243.362 45.8692 237.929 53.2077C232.502 60.5497 233.35 70.4203 239.82 75.2099C242.179 76.9578 244.967 77.7933 247.82 77.7933C252.793 77.7933 257.967 75.2551 261.425 70.5875C266.852 63.2455 266.004 53.375 259.534 48.5835Z" fill="white"/>
</g>
<path d="M136.535 316.669C136.535 317.261 136.474 317.717 136.35 318.038C136.252 318.359 136.116 318.605 135.943 318.778C135.795 318.951 135.61 319.049 135.388 319.074C135.191 319.123 134.994 319.148 134.796 319.148C134.13 319.148 133.686 319 133.464 318.704C133.267 318.408 133.131 317.742 133.057 316.706C133.008 316.163 132.971 315.374 132.946 314.338C132.922 313.302 132.897 312.069 132.872 310.638C132.872 309.207 132.86 307.629 132.835 305.902C132.835 304.175 132.835 302.35 132.835 300.426C132.835 299.513 132.946 298.588 133.168 297.651C133.39 296.714 133.81 295.863 134.426 295.098C135.068 294.333 135.943 293.717 137.053 293.248C138.188 292.779 139.656 292.545 141.456 292.545C142.714 292.545 143.911 292.681 145.045 292.952C146.18 293.223 147.179 293.692 148.042 294.358C148.906 295.024 149.596 295.912 150.114 297.022C150.632 298.132 150.891 299.513 150.891 301.166C150.891 302.893 150.608 304.323 150.04 305.458C149.473 306.593 148.671 307.493 147.635 308.159C146.599 308.825 145.366 309.294 143.935 309.565C142.505 309.836 140.938 309.972 139.236 309.972C138.817 309.972 138.398 309.972 137.978 309.972C137.559 309.972 137.09 309.947 136.572 309.898L136.535 316.669ZM147.191 301.092C147.191 299.439 146.723 298.194 145.785 297.355C144.873 296.516 143.343 296.097 141.197 296.097C140.383 296.097 139.68 296.171 139.088 296.319C138.521 296.442 138.052 296.677 137.682 297.022C137.312 297.343 137.029 297.787 136.831 298.354C136.659 298.921 136.572 299.637 136.572 300.5C136.572 301.339 136.572 302.301 136.572 303.386C136.572 304.447 136.585 305.446 136.609 306.383C137.177 306.408 137.806 306.42 138.496 306.42C139.212 306.42 139.878 306.42 140.494 306.42C141.234 306.42 141.999 306.371 142.788 306.272C143.602 306.173 144.33 305.951 144.971 305.606C145.613 305.236 146.143 304.706 146.562 304.015C146.982 303.3 147.191 302.325 147.191 301.092ZM162.449 312.192C161.585 312.192 160.673 312.13 159.711 312.007C158.773 311.859 157.75 311.563 156.64 311.119C156.862 312.624 157.478 313.758 158.49 314.523C159.526 315.288 161.006 315.67 162.93 315.67C163.62 315.67 164.237 315.633 164.78 315.559C165.347 315.46 165.84 315.362 166.26 315.263C166.679 315.14 167.049 315.041 167.37 314.967C167.69 314.868 167.986 314.819 168.258 314.819C168.603 314.819 168.936 314.93 169.257 315.152C169.577 315.349 169.738 315.695 169.738 316.188C169.738 316.805 169.479 317.31 168.961 317.705C168.467 318.1 167.851 318.42 167.111 318.667C166.395 318.889 165.631 319.037 164.817 319.111C164.003 319.21 163.287 319.259 162.671 319.259C161.215 319.259 159.871 319.062 158.638 318.667C157.429 318.272 156.381 317.68 155.493 316.891C154.605 316.077 153.914 315.078 153.421 313.894C152.927 312.71 152.681 311.329 152.681 309.75C152.681 308.221 152.915 306.864 153.384 305.68C153.877 304.496 154.543 303.497 155.382 302.683C156.22 301.869 157.207 301.252 158.342 300.833C159.501 300.414 160.747 300.204 162.079 300.204C163.115 300.204 164.114 300.34 165.076 300.611C166.062 300.882 166.926 301.289 167.666 301.832C168.43 302.375 169.035 303.065 169.479 303.904C169.947 304.718 170.182 305.68 170.182 306.79C170.182 307.777 169.997 308.615 169.627 309.306C169.257 309.997 168.726 310.552 168.036 310.971C167.37 311.39 166.556 311.699 165.594 311.896C164.656 312.093 163.608 312.192 162.449 312.192ZM162.19 303.608C161.524 303.608 160.882 303.694 160.266 303.867C159.649 304.015 159.082 304.274 158.564 304.644C158.07 304.989 157.651 305.458 157.306 306.05C156.96 306.617 156.726 307.333 156.603 308.196C157.54 308.615 158.453 308.911 159.341 309.084C160.229 309.232 161.166 309.306 162.153 309.306C163.608 309.306 164.681 309.133 165.372 308.788C166.087 308.418 166.445 307.764 166.445 306.827C166.445 305.964 166.112 305.211 165.446 304.57C164.804 303.929 163.719 303.608 162.19 303.608ZM176.884 316.595C176.81 315.041 176.761 313.203 176.736 311.082C176.736 308.936 176.736 306.506 176.736 303.793C176.49 303.818 176.194 303.83 175.848 303.83C175.528 303.83 175.269 303.83 175.071 303.83C174.627 303.83 174.22 303.818 173.85 303.793C173.505 303.768 173.197 303.694 172.925 303.571C172.654 303.448 172.444 303.275 172.296 303.053C172.148 302.806 172.074 302.473 172.074 302.054C172.074 300.87 172.962 300.278 174.738 300.278C175.01 300.278 175.343 300.278 175.737 300.278C176.132 300.278 176.465 300.303 176.736 300.352C176.736 299.045 176.761 297.996 176.81 297.207C176.86 296.418 176.946 295.813 177.069 295.394C177.217 294.95 177.402 294.666 177.624 294.543C177.871 294.395 178.179 294.321 178.549 294.321C178.944 294.321 179.265 294.457 179.511 294.728C179.758 294.999 179.943 295.345 180.066 295.764C180.214 296.183 180.301 296.652 180.325 297.17C180.375 297.688 180.399 298.194 180.399 298.687C180.399 299.032 180.387 299.353 180.362 299.649C180.362 299.92 180.362 300.167 180.362 300.389C180.708 300.29 181.065 300.241 181.435 300.241C181.805 300.216 182.163 300.204 182.508 300.204C183.421 300.204 184.124 300.352 184.617 300.648C185.111 300.919 185.357 301.376 185.357 302.017C185.357 302.412 185.271 302.732 185.098 302.979C184.926 303.201 184.691 303.374 184.395 303.497C184.124 303.62 183.791 303.707 183.396 303.756C183.026 303.781 182.619 303.793 182.175 303.793C181.929 303.793 181.645 303.793 181.324 303.793C181.004 303.793 180.708 303.768 180.436 303.719C180.436 305.026 180.436 306.223 180.436 307.308C180.436 308.393 180.424 309.442 180.399 310.453C180.375 311.44 180.35 312.426 180.325 313.413C180.301 314.4 180.264 315.448 180.214 316.558C180.19 317.15 180.128 317.606 180.029 317.927C179.955 318.248 179.844 318.494 179.696 318.667C179.548 318.84 179.376 318.951 179.178 319C179.006 319.025 178.796 319.037 178.549 319.037C178.105 319.037 177.723 318.889 177.402 318.593C177.106 318.272 176.934 317.606 176.884 316.595ZM194.92 299.686C195.438 299.686 196.092 299.735 196.881 299.834C197.671 299.908 198.423 300.068 199.138 300.315C199.854 300.537 200.47 300.858 200.988 301.277C201.506 301.696 201.765 302.227 201.765 302.868C201.765 303.238 201.654 303.559 201.432 303.83C201.235 304.101 200.914 304.237 200.47 304.237C200.15 304.237 199.78 304.188 199.36 304.089C198.966 303.99 198.522 303.879 198.028 303.756C197.56 303.608 197.042 303.485 196.474 303.386C195.932 303.287 195.352 303.238 194.735 303.238C193.699 303.238 192.848 303.398 192.182 303.719C191.541 304.04 191.22 304.545 191.22 305.236C191.22 305.631 191.331 305.964 191.553 306.235C191.8 306.506 192.121 306.753 192.515 306.975C192.935 307.172 193.416 307.345 193.958 307.493C194.526 307.641 195.118 307.789 195.734 307.937C196.499 308.134 197.251 308.356 197.991 308.603C198.756 308.85 199.434 309.195 200.026 309.639C200.618 310.058 201.099 310.601 201.469 311.267C201.839 311.908 202.024 312.71 202.024 313.672C202.024 315.497 201.334 316.953 199.952 318.038C198.571 319.099 196.536 319.629 193.847 319.629C193.255 319.629 192.552 319.58 191.738 319.481C190.924 319.407 190.16 319.247 189.444 319C188.729 318.778 188.112 318.457 187.594 318.038C187.101 317.594 186.854 317.014 186.854 316.299C186.854 315.806 186.965 315.436 187.187 315.189C187.434 314.918 187.73 314.782 188.075 314.782C188.347 314.782 188.63 314.868 188.926 315.041C189.222 315.214 189.58 315.399 189.999 315.596C190.419 315.793 190.924 315.978 191.516 316.151C192.108 316.324 192.836 316.41 193.699 316.41C194.02 316.41 194.439 316.398 194.957 316.373C195.475 316.324 195.981 316.213 196.474 316.04C196.992 315.867 197.424 315.633 197.769 315.337C198.139 315.016 198.324 314.572 198.324 314.005C198.324 313.561 198.201 313.191 197.954 312.895C197.708 312.574 197.375 312.303 196.955 312.081C196.536 311.859 196.043 311.674 195.475 311.526C194.933 311.353 194.353 311.181 193.736 311.008C193.021 310.811 192.293 310.589 191.553 310.342C190.838 310.095 190.184 309.775 189.592 309.38C189 308.985 188.519 308.492 188.149 307.9C187.779 307.283 187.594 306.531 187.594 305.643C187.594 304.804 187.767 304.027 188.112 303.312C188.458 302.572 188.951 301.931 189.592 301.388C190.234 300.845 190.998 300.426 191.886 300.13C192.799 299.834 193.81 299.686 194.92 299.686ZM214.085 303.793C213.172 303.793 212.346 303.929 211.606 304.2C210.891 304.471 210.077 304.841 209.164 305.31C209.164 305.335 209.164 305.569 209.164 306.013C209.164 306.457 209.152 307.024 209.127 307.715C209.127 308.406 209.115 309.183 209.09 310.046C209.09 310.885 209.078 311.736 209.053 312.599C209.053 313.438 209.028 314.239 208.979 315.004C208.954 315.769 208.93 316.41 208.905 316.928C208.856 317.446 208.794 317.853 208.72 318.149C208.671 318.445 208.597 318.667 208.498 318.815C208.424 318.938 208.313 319.012 208.165 319.037C208.017 319.062 207.857 319.074 207.684 319.074C207.265 319.074 206.932 319.049 206.685 319C206.463 318.975 206.278 318.901 206.13 318.778C205.982 318.63 205.871 318.42 205.797 318.149C205.748 317.878 205.698 317.508 205.649 317.039C205.6 316.57 205.55 315.929 205.501 315.115C205.476 314.276 205.452 313.351 205.427 312.34C205.402 311.304 205.378 310.206 205.353 309.047C205.353 307.888 205.353 306.741 205.353 305.606C205.353 304.471 205.353 303.275 205.353 302.017C205.378 300.734 205.402 299.513 205.427 298.354C205.452 297.17 205.476 296.122 205.501 295.209C205.526 294.272 205.563 293.581 205.612 293.137C205.661 292.496 205.772 291.941 205.945 291.472C206.142 291.003 206.562 290.769 207.203 290.769C207.696 290.769 208.091 290.942 208.387 291.287C208.708 291.632 208.893 292.286 208.942 293.248C208.991 294.111 209.028 295.32 209.053 296.874C209.102 298.403 209.139 300.13 209.164 302.054C209.509 301.783 209.929 301.536 210.422 301.314C210.915 301.067 211.433 300.87 211.976 300.722C212.519 300.549 213.074 300.414 213.641 300.315C214.208 300.216 214.739 300.167 215.232 300.167C216.416 300.167 217.44 300.451 218.303 301.018C219.191 301.561 219.894 302.35 220.412 303.386C220.757 304.052 221.016 304.792 221.189 305.606C221.362 306.395 221.485 307.234 221.559 308.122C221.584 308.517 221.608 308.911 221.633 309.306C221.658 309.676 221.67 310.083 221.67 310.527C221.695 310.946 221.707 311.427 221.707 311.97C221.707 312.513 221.707 313.154 221.707 313.894C221.707 314.634 221.695 315.325 221.67 315.966C221.645 316.583 221.571 317.125 221.448 317.594C221.349 318.038 221.177 318.396 220.93 318.667C220.683 318.914 220.338 319.037 219.894 319.037C219.253 319.037 218.772 318.84 218.451 318.445C218.155 318.026 218.007 317.532 218.007 316.965C218.007 316.94 218.007 316.681 218.007 316.188C218.007 315.695 217.995 315.127 217.97 314.486C217.97 313.82 217.958 313.154 217.933 312.488C217.933 311.822 217.921 311.279 217.896 310.86C217.871 310.465 217.834 310.046 217.785 309.602C217.76 309.133 217.711 308.665 217.637 308.196C217.588 307.727 217.514 307.283 217.415 306.864C217.316 306.42 217.193 306.025 217.045 305.68C216.7 304.866 216.268 304.348 215.75 304.126C215.232 303.904 214.677 303.793 214.085 303.793ZM234.497 300.241C235.903 300.241 237.161 300.463 238.271 300.907C239.381 301.326 240.319 301.931 241.083 302.72C241.873 303.509 242.477 304.471 242.896 305.606C243.316 306.741 243.525 308.011 243.525 309.417C243.525 310.971 243.279 312.365 242.785 313.598C242.317 314.831 241.651 315.88 240.787 316.743C239.949 317.606 238.937 318.272 237.753 318.741C236.594 319.21 235.324 319.444 233.942 319.444C232.438 319.444 231.106 319.185 229.946 318.667C228.812 318.149 227.85 317.446 227.06 316.558C226.296 315.67 225.716 314.646 225.321 313.487C224.927 312.328 224.729 311.107 224.729 309.824C224.729 308.418 224.951 307.135 225.395 305.976C225.864 304.792 226.518 303.781 227.356 302.942C228.22 302.079 229.256 301.413 230.464 300.944C231.673 300.475 233.017 300.241 234.497 300.241ZM234.09 316.04C235.102 316.04 235.965 315.867 236.68 315.522C237.396 315.152 237.975 314.671 238.419 314.079C238.888 313.487 239.221 312.821 239.418 312.081C239.64 311.316 239.751 310.527 239.751 309.713C239.751 308.874 239.64 308.097 239.418 307.382C239.221 306.642 238.9 306.001 238.456 305.458C238.037 304.915 237.482 304.496 236.791 304.2C236.125 303.879 235.324 303.719 234.386 303.719C233.424 303.719 232.586 303.879 231.87 304.2C231.155 304.521 230.551 304.965 230.057 305.532C229.589 306.075 229.231 306.728 228.984 307.493C228.738 308.258 228.614 309.084 228.614 309.972C228.614 311.773 229.071 313.24 229.983 314.375C230.921 315.485 232.29 316.04 234.09 316.04ZM250.868 324.328C250.868 324.797 250.856 325.241 250.831 325.66C250.806 326.104 250.72 326.499 250.572 326.844C250.449 327.189 250.251 327.461 249.98 327.658C249.733 327.88 249.376 327.991 248.907 327.991C248.364 327.991 247.908 327.794 247.538 327.399C247.193 327.029 246.995 326.363 246.946 325.401C246.921 324.784 246.884 324.032 246.835 323.144C246.786 322.256 246.736 321.319 246.687 320.332C246.662 319.345 246.625 318.359 246.576 317.372C246.551 316.385 246.539 315.473 246.539 314.634C246.539 311.748 246.736 309.368 247.131 307.493C247.55 305.618 248.167 304.126 248.981 303.016C249.795 301.906 250.794 301.129 251.978 300.685C253.187 300.241 254.58 300.019 256.159 300.019C257.417 300.019 258.601 300.216 259.711 300.611C260.821 300.981 261.783 301.573 262.597 302.387C263.436 303.176 264.102 304.212 264.595 305.495C265.088 306.753 265.335 308.27 265.335 310.046C265.335 311.526 265.076 312.833 264.558 313.968C264.065 315.103 263.374 316.065 262.486 316.854C261.598 317.619 260.55 318.211 259.341 318.63C258.157 319.025 256.887 319.222 255.53 319.222C254.371 319.222 253.322 318.988 252.385 318.519C251.472 318.026 250.819 317.495 250.424 316.928C250.547 318.309 250.646 319.592 250.72 320.776C250.819 321.96 250.868 323.144 250.868 324.328ZM255.974 303.719C255.111 303.719 254.358 303.867 253.717 304.163C253.1 304.459 252.595 304.866 252.2 305.384C251.805 305.902 251.509 306.519 251.312 307.234C251.139 307.949 251.053 308.726 251.053 309.565C251.053 310.379 251.127 311.156 251.275 311.896C251.448 312.611 251.719 313.24 252.089 313.783C252.459 314.326 252.952 314.757 253.569 315.078C254.186 315.399 254.938 315.559 255.826 315.559C256.517 315.559 257.183 315.473 257.824 315.3C258.465 315.103 259.033 314.782 259.526 314.338C260.044 313.894 260.451 313.302 260.747 312.562C261.068 311.822 261.228 310.897 261.228 309.787C261.228 308.652 261.068 307.703 260.747 306.938C260.451 306.149 260.044 305.52 259.526 305.051C259.033 304.558 258.465 304.212 257.824 304.015C257.207 303.818 256.591 303.719 255.974 303.719ZM275.135 299.686C275.653 299.686 276.307 299.735 277.096 299.834C277.886 299.908 278.638 300.068 279.353 300.315C280.069 300.537 280.685 300.858 281.203 301.277C281.721 301.696 281.98 302.227 281.98 302.868C281.98 303.238 281.869 303.559 281.647 303.83C281.45 304.101 281.129 304.237 280.685 304.237C280.365 304.237 279.995 304.188 279.575 304.089C279.181 303.99 278.737 303.879 278.243 303.756C277.775 303.608 277.257 303.485 276.689 303.386C276.147 303.287 275.567 303.238 274.95 303.238C273.914 303.238 273.063 303.398 272.397 303.719C271.756 304.04 271.435 304.545 271.435 305.236C271.435 305.631 271.546 305.964 271.768 306.235C272.015 306.506 272.336 306.753 272.73 306.975C273.15 307.172 273.631 307.345 274.173 307.493C274.741 307.641 275.333 307.789 275.949 307.937C276.714 308.134 277.466 308.356 278.206 308.603C278.971 308.85 279.649 309.195 280.241 309.639C280.833 310.058 281.314 310.601 281.684 311.267C282.054 311.908 282.239 312.71 282.239 313.672C282.239 315.497 281.549 316.953 280.167 318.038C278.786 319.099 276.751 319.629 274.062 319.629C273.47 319.629 272.767 319.58 271.953 319.481C271.139 319.407 270.375 319.247 269.659 319C268.944 318.778 268.327 318.457 267.809 318.038C267.316 317.594 267.069 317.014 267.069 316.299C267.069 315.806 267.18 315.436 267.402 315.189C267.649 314.918 267.945 314.782 268.29 314.782C268.562 314.782 268.845 314.868 269.141 315.041C269.437 315.214 269.795 315.399 270.214 315.596C270.634 315.793 271.139 315.978 271.731 316.151C272.323 316.324 273.051 316.41 273.914 316.41C274.235 316.41 274.654 316.398 275.172 316.373C275.69 316.324 276.196 316.213 276.689 316.04C277.207 315.867 277.639 315.633 277.984 315.337C278.354 315.016 278.539 314.572 278.539 314.005C278.539 313.561 278.416 313.191 278.169 312.895C277.923 312.574 277.59 312.303 277.17 312.081C276.751 311.859 276.258 311.674 275.69 311.526C275.148 311.353 274.568 311.181 273.951 311.008C273.236 310.811 272.508 310.589 271.768 310.342C271.053 310.095 270.399 309.775 269.807 309.38C269.215 308.985 268.734 308.492 268.364 307.9C267.994 307.283 267.809 306.531 267.809 305.643C267.809 304.804 267.982 304.027 268.327 303.312C268.673 302.572 269.166 301.931 269.807 301.388C270.449 300.845 271.213 300.426 272.101 300.13C273.014 299.834 274.025 299.686 275.135 299.686Z" fill="white"/>
<g opacity="0.99">
<rect x="140" y="516" width="134" height="5" rx="2.5" fill="black"/>
</g>
</g>
<defs>
<clipPath id="clip0_1_10">
<rect width="414" height="532" fill="white"/>
</clipPath>
<clipPath id="clip1_1_10">
<rect width="116" height="116" fill="white" transform="translate(149)"/>
</clipPath>
</defs>
</svg>
