<svg width="116" height="116" viewBox="0 0 116 116" fill="none" xmlns="http://www.w3.org/2000/svg">
<g clip-path="url(#clip0_1_12)">
<path d="M77.5711 61.4781C72.3513 53.3351 63.4614 48.4729 53.79 48.4729C44.1186 48.4729 35.2287 53.3351 30.0098 61.4781L17.432 81.0997C15.3452 84.3547 14.3823 88.116 14.6469 91.9738C14.9115 95.8324 16.3798 99.4256 18.8923 102.367C21.4066 105.306 24.7289 107.315 28.5 108.177C32.271 109.039 36.1367 108.671 39.6785 107.115L39.9157 107.009C48.8278 103.17 59.0116 103.205 67.9006 107.115C70.1937 108.123 72.623 108.632 75.0745 108.632C76.4073 108.632 77.7481 108.481 79.0765 108.178C82.8475 107.317 86.1699 105.308 88.6851 102.368C91.1985 99.4291 92.6676 95.8351 92.9331 91.9756C93.1986 88.116 92.2357 84.3556 90.1489 81.0988L77.5711 61.4781Z" fill="white"/>
<path d="M20.8199 61.4524C24.5617 60.0152 27.4043 56.9999 28.8239 52.9616C30.1753 49.1189 30.0647 44.7806 28.5115 40.745C26.9574 36.712 24.1307 33.4197 20.5517 31.4736C16.7922 29.4301 12.6618 29.0973 8.92621 30.5373C1.41071 33.4268 -2.03817 42.7141 1.23902 51.2447C3.85688 58.0345 9.96256 62.3206 16.1355 62.3206C17.7117 62.3206 19.2923 62.041 20.8199 61.4524Z" fill="white"/>
<path d="M45.2249 46.0798C54.6202 46.0798 62.264 37.3713 62.264 26.6671C62.264 15.9603 54.6202 7.25 45.2249 7.25C35.8305 7.25 28.1876 15.9603 28.1876 26.6671C28.1876 37.3713 35.8305 46.0798 45.2249 46.0798Z" fill="white"/>
<path d="M74.6514 50.8491H74.6523C76.0976 51.3288 77.572 51.558 79.0402 51.558C85.892 51.558 92.5694 46.571 95.1173 38.9068C96.5846 34.495 96.4882 29.8302 94.8456 25.7724C93.1269 21.5243 89.9418 18.441 85.876 17.0896C81.8094 15.7381 77.4118 16.3019 73.4921 18.6755C69.7476 20.9429 66.8784 24.6219 65.4128 29.0336C62.3197 38.3404 66.4642 48.1268 74.6514 50.8491V50.8491Z" fill="white"/>
<path d="M110.534 48.5835L110.531 48.5809C104.052 43.7947 94.3624 45.8692 88.9293 53.2077C83.5015 60.5497 84.3503 70.4203 90.8197 75.2099C93.1791 76.9578 95.9669 77.7933 98.8202 77.7933C103.793 77.7933 108.967 75.2551 112.425 70.5875C117.852 63.2455 117.004 53.375 110.534 48.5835V48.5835Z" fill="white"/>
</g>
<defs>
<clipPath id="clip0_1_12">
<rect width="116" height="116" fill="white"/>
</clipPath>
</defs>
</svg>
