<svg width="56" height="56" viewBox="0 0 56 56" fill="none" xmlns="http://www.w3.org/2000/svg">
<g clip-path="url(#clip0_1_163)">
<path d="M37.4481 29.6791C34.9282 25.748 30.6365 23.4007 25.9676 23.4007C21.2986 23.4007 17.007 25.748 14.4875 29.6791L8.41546 39.1516C7.40802 40.723 6.94317 42.5388 7.07092 44.4011C7.19867 46.2639 7.90747 47.9985 9.12042 49.4187C10.3342 50.8376 11.9381 51.8074 13.7586 52.2236C15.5791 52.6397 17.4453 52.462 19.1551 51.7105L19.2696 51.6596C23.572 49.8062 28.4883 49.8233 32.7796 51.7105C33.8866 52.1971 35.0594 52.4432 36.2429 52.4432C36.8863 52.4432 37.5336 52.3701 38.1749 52.224C39.9954 51.8083 41.5992 50.8385 42.8135 49.4191C44.0269 48.0003 44.7361 46.2652 44.8643 44.402C44.9924 42.5388 44.5276 40.7234 43.5201 39.1511L37.4481 29.6791Z" fill="#7B6BBC"/>
<path d="M10.051 29.6667C11.8574 28.9728 13.2297 27.5172 13.915 25.5677C14.5674 23.7126 14.514 21.6182 13.7642 19.67C13.0139 17.723 11.6493 16.1337 9.92152 15.1942C8.10658 14.2076 6.11263 14.047 4.30922 14.7421C0.681046 16.1371 -0.983933 20.6206 0.59816 24.7388C1.86195 28.0167 4.80952 30.0858 7.78957 30.0858C8.55049 30.0858 9.31355 29.9508 10.051 29.6667Z" fill="#7B6BBC"/>
<path d="M21.8327 22.2454C26.3684 22.2454 30.0585 18.0413 30.0585 12.8738C30.0585 7.70496 26.3684 3.5 21.8327 3.5C17.2975 3.5 13.6078 7.70496 13.6078 12.8738C13.6078 18.0413 17.2975 22.2454 21.8327 22.2454Z" fill="#7B6BBC"/>
<path d="M36.0386 24.5478H36.0391C36.7368 24.7794 37.4485 24.8901 38.1573 24.8901C41.4651 24.8901 44.6887 22.4825 45.9187 18.7826C46.6271 16.6528 46.5805 14.4008 45.7875 12.4418C44.9578 10.3911 43.4202 8.90253 41.4574 8.25012C39.4942 7.59772 37.3712 7.86988 35.4789 9.01575C33.6713 10.1104 32.2861 11.8864 31.5786 14.0162C30.0854 18.5092 32.0862 23.2336 36.0386 24.5478Z" fill="#7B6BBC"/>
<path d="M53.3613 23.4541L53.36 23.4528C50.2322 21.1423 45.5543 22.1437 42.9314 25.6865C40.3111 29.2309 40.7208 33.996 43.844 36.3082C44.983 37.1521 46.3289 37.5554 47.7063 37.5554C50.107 37.5554 52.6047 36.33 54.2743 34.0767C56.8942 30.5323 56.4849 25.7672 53.3613 23.4541Z" fill="#7B6BBC"/>
</g>
<defs>
<clipPath id="clip0_1_163">
<rect width="56" height="56" fill="white"/>
</clipPath>
</defs>
</svg>
