<svg width="151" height="38" viewBox="0 0 151 38" fill="none" xmlns="http://www.w3.org/2000/svg">
<path d="M4.53523 26.669C4.53523 27.261 4.47357 27.7173 4.35023 28.038C4.25157 28.3587 4.1159 28.6053 3.94323 28.778C3.79523 28.9507 3.61023 29.0493 3.38823 29.074C3.1909 29.1233 2.99357 29.148 2.79623 29.148C2.13023 29.148 1.68623 29 1.46423 28.704C1.2669 28.408 1.13123 27.742 1.05723 26.706C1.0079 26.1633 0.970901 25.374 0.946234 24.338C0.921568 23.302 0.896901 22.0687 0.872235 20.638C0.872235 19.2073 0.859901 17.6287 0.835234 15.902C0.835234 14.1753 0.835234 12.35 0.835234 10.426C0.835234 9.51333 0.946235 8.58833 1.16823 7.651C1.39023 6.71367 1.80957 5.86267 2.42623 5.098C3.06757 4.33333 3.94323 3.71667 5.05323 3.248C6.1879 2.77933 7.65557 2.545 9.45623 2.545C10.7142 2.545 11.9106 2.68067 13.0452 2.952C14.1799 3.22333 15.1789 3.692 16.0422 4.358C16.9056 5.024 17.5962 5.912 18.1142 7.022C18.6322 8.132 18.8912 9.51333 18.8912 11.166C18.8912 12.8927 18.6076 14.3233 18.0402 15.458C17.4729 16.5927 16.6712 17.493 15.6352 18.159C14.5992 18.825 13.3659 19.2937 11.9352 19.565C10.5046 19.8363 8.93823 19.972 7.23623 19.972C6.8169 19.972 6.39757 19.972 5.97823 19.972C5.5589 19.972 5.09023 19.9473 4.57223 19.898L4.53523 26.669ZM15.1912 11.092C15.1912 9.43933 14.7226 8.19367 13.7852 7.355C12.8726 6.51633 11.3432 6.097 9.19723 6.097C8.38324 6.097 7.68024 6.171 7.08824 6.319C6.5209 6.44233 6.05223 6.67667 5.68223 7.022C5.31223 7.34267 5.02857 7.78667 4.83123 8.354C4.65857 8.92133 4.57223 9.63667 4.57223 10.5C4.57223 11.3387 4.57223 12.3007 4.57223 13.386C4.57223 14.4467 4.58457 15.4457 4.60923 16.383C5.17657 16.4077 5.80557 16.42 6.49623 16.42C7.21157 16.42 7.87757 16.42 8.49424 16.42C9.23424 16.42 9.9989 16.3707 10.7882 16.272C11.6022 16.1733 12.3299 15.9513 12.9712 15.606C13.6126 15.236 14.1429 14.7057 14.5622 14.015C14.9816 13.2997 15.1912 12.3253 15.1912 11.092ZM30.4485 22.192C29.5852 22.192 28.6725 22.1303 27.7105 22.007C26.7732 21.859 25.7495 21.563 24.6395 21.119C24.8615 22.6237 25.4782 23.7583 26.4895 24.523C27.5255 25.2877 29.0055 25.67 30.9295 25.67C31.6202 25.67 32.2369 25.633 32.7795 25.559C33.3469 25.4603 33.8402 25.3617 34.2595 25.263C34.6789 25.1397 35.0489 25.041 35.3695 24.967C35.6902 24.8683 35.9862 24.819 36.2575 24.819C36.6029 24.819 36.9359 24.93 37.2565 25.152C37.5772 25.3493 37.7375 25.6947 37.7375 26.188C37.7375 26.8047 37.4785 27.3103 36.9605 27.705C36.4672 28.0997 35.8505 28.4203 35.1105 28.667C34.3952 28.889 33.6305 29.037 32.8165 29.111C32.0025 29.2097 31.2872 29.259 30.6705 29.259C29.2152 29.259 27.8709 29.0617 26.6375 28.667C25.4289 28.2723 24.3805 27.6803 23.4925 26.891C22.6045 26.077 21.9139 25.078 21.4205 23.894C20.9272 22.71 20.6805 21.3287 20.6805 19.75C20.6805 18.2207 20.9149 16.864 21.3835 15.68C21.8769 14.496 22.5429 13.497 23.3815 12.683C24.2202 11.869 25.2069 11.2523 26.3415 10.833C27.5009 10.4137 28.7465 10.204 30.0785 10.204C31.1145 10.204 32.1135 10.3397 33.0755 10.611C34.0622 10.8823 34.9255 11.2893 35.6655 11.832C36.4302 12.3747 37.0345 13.0653 37.4785 13.904C37.9472 14.718 38.1815 15.68 38.1815 16.79C38.1815 17.7767 37.9965 18.6153 37.6265 19.306C37.2565 19.9967 36.7262 20.5517 36.0355 20.971C35.3695 21.3903 34.5555 21.6987 33.5935 21.896C32.6562 22.0933 31.6079 22.192 30.4485 22.192ZM30.1895 13.608C29.5235 13.608 28.8822 13.6943 28.2655 13.867C27.6489 14.015 27.0815 14.274 26.5635 14.644C26.0702 14.9893 25.6509 15.458 25.3055 16.05C24.9602 16.6173 24.7259 17.3327 24.6025 18.196C25.5399 18.6153 26.4525 18.9113 27.3405 19.084C28.2285 19.232 29.1659 19.306 30.1525 19.306C31.6079 19.306 32.6809 19.1333 33.3715 18.788C34.0869 18.418 34.4445 17.7643 34.4445 16.827C34.4445 15.9637 34.1115 15.2113 33.4455 14.57C32.8042 13.9287 31.7189 13.608 30.1895 13.608ZM44.8843 26.595C44.8103 25.041 44.761 23.2033 44.7363 21.082C44.7363 18.936 44.7363 16.5063 44.7363 13.793C44.4896 13.8177 44.1936 13.83 43.8483 13.83C43.5276 13.83 43.2686 13.83 43.0713 13.83C42.6273 13.83 42.2203 13.8177 41.8503 13.793C41.505 13.7683 41.1966 13.6943 40.9253 13.571C40.654 13.4477 40.4443 13.275 40.2963 13.053C40.1483 12.8063 40.0743 12.4733 40.0743 12.054C40.0743 10.87 40.9623 10.278 42.7383 10.278C43.0096 10.278 43.3426 10.278 43.7373 10.278C44.132 10.278 44.465 10.3027 44.7363 10.352C44.7363 9.04467 44.761 7.99633 44.8103 7.207C44.8596 6.41766 44.946 5.81333 45.0693 5.394C45.2173 4.95 45.4023 4.66633 45.6243 4.543C45.871 4.395 46.1793 4.321 46.5493 4.321C46.944 4.321 47.2646 4.45667 47.5113 4.728C47.758 4.99933 47.943 5.34467 48.0663 5.764C48.2143 6.18333 48.3006 6.652 48.3253 7.17C48.3746 7.688 48.3993 8.19367 48.3993 8.687C48.3993 9.03233 48.387 9.353 48.3623 9.649C48.3623 9.92033 48.3623 10.167 48.3623 10.389C48.7076 10.2903 49.0653 10.241 49.4353 10.241C49.8053 10.2163 50.163 10.204 50.5083 10.204C51.421 10.204 52.124 10.352 52.6173 10.648C53.1106 10.9193 53.3573 11.3757 53.3573 12.017C53.3573 12.4117 53.271 12.7323 53.0983 12.979C52.9256 13.201 52.6913 13.3737 52.3953 13.497C52.124 13.6203 51.791 13.7067 51.3963 13.756C51.0263 13.7807 50.6193 13.793 50.1753 13.793C49.9286 13.793 49.645 13.793 49.3243 13.793C49.0036 13.793 48.7076 13.7683 48.4363 13.719C48.4363 15.0263 48.4363 16.2227 48.4363 17.308C48.4363 18.3933 48.424 19.4417 48.3993 20.453C48.3746 21.4397 48.35 22.4263 48.3253 23.413C48.3006 24.3997 48.2636 25.448 48.2143 26.558C48.1896 27.15 48.128 27.6063 48.0293 27.927C47.9553 28.2477 47.8443 28.4943 47.6963 28.667C47.5483 28.8397 47.3756 28.9507 47.1783 29C47.0056 29.0247 46.796 29.037 46.5493 29.037C46.1053 29.037 45.723 28.889 45.4023 28.593C45.1063 28.2723 44.9336 27.6063 44.8843 26.595ZM62.9204 9.686C63.4384 9.686 64.092 9.73533 64.8814 9.834C65.6707 9.908 66.423 10.0683 67.1384 10.315C67.8537 10.537 68.4704 10.8577 68.9884 11.277C69.5064 11.6963 69.7654 12.2267 69.7654 12.868C69.7654 13.238 69.6544 13.5587 69.4324 13.83C69.235 14.1013 68.9144 14.237 68.4704 14.237C68.1497 14.237 67.7797 14.1877 67.3604 14.089C66.9657 13.9903 66.5217 13.8793 66.0284 13.756C65.5597 13.608 65.0417 13.4847 64.4744 13.386C63.9317 13.2873 63.352 13.238 62.7354 13.238C61.6994 13.238 60.8484 13.3983 60.1824 13.719C59.541 14.0397 59.2204 14.5453 59.2204 15.236C59.2204 15.6307 59.3314 15.9637 59.5534 16.235C59.8 16.5063 60.1207 16.753 60.5154 16.975C60.9347 17.1723 61.4157 17.345 61.9584 17.493C62.5257 17.641 63.1177 17.789 63.7344 17.937C64.499 18.1343 65.2514 18.3563 65.9914 18.603C66.756 18.8497 67.4344 19.195 68.0264 19.639C68.6184 20.0583 69.0994 20.601 69.4694 21.267C69.8394 21.9083 70.0244 22.71 70.0244 23.672C70.0244 25.4973 69.3337 26.9527 67.9524 28.038C66.571 29.0987 64.536 29.629 61.8474 29.629C61.2554 29.629 60.5524 29.5797 59.7384 29.481C58.9244 29.407 58.1597 29.2467 57.4444 29C56.729 28.778 56.1124 28.4573 55.5944 28.038C55.101 27.594 54.8544 27.0143 54.8544 26.299C54.8544 25.8057 54.9654 25.4357 55.1874 25.189C55.434 24.9177 55.73 24.782 56.0754 24.782C56.3467 24.782 56.6304 24.8683 56.9264 25.041C57.2224 25.2137 57.58 25.3987 57.9994 25.596C58.4187 25.7933 58.9244 25.9783 59.5164 26.151C60.1084 26.3237 60.836 26.41 61.6994 26.41C62.02 26.41 62.4394 26.3977 62.9574 26.373C63.4754 26.3237 63.981 26.2127 64.4744 26.04C64.9924 25.8673 65.424 25.633 65.7694 25.337C66.1394 25.0163 66.3244 24.5723 66.3244 24.005C66.3244 23.561 66.201 23.191 65.9544 22.895C65.7077 22.5743 65.3747 22.303 64.9554 22.081C64.536 21.859 64.0427 21.674 63.4754 21.526C62.9327 21.3533 62.353 21.1807 61.7364 21.008C61.021 20.8107 60.2934 20.5887 59.5534 20.342C58.838 20.0953 58.1844 19.7747 57.5924 19.38C57.0004 18.9853 56.5194 18.492 56.1494 17.9C55.7794 17.2833 55.5944 16.531 55.5944 15.643C55.5944 14.8043 55.767 14.0273 56.1124 13.312C56.4577 12.572 56.951 11.9307 57.5924 11.388C58.2337 10.8453 58.9984 10.426 59.8864 10.13C60.799 9.834 61.8104 9.686 62.9204 9.686ZM82.0849 13.793C81.1723 13.793 80.3459 13.9287 79.6059 14.2C78.8906 14.4713 78.0766 14.8413 77.1639 15.31C77.1639 15.3347 77.1639 15.569 77.1639 16.013C77.1639 16.457 77.1516 17.0243 77.1269 17.715C77.1269 18.4057 77.1146 19.1827 77.0899 20.046C77.0899 20.8847 77.0776 21.7357 77.0529 22.599C77.0529 23.4377 77.0283 24.2393 76.9789 25.004C76.9543 25.7687 76.9296 26.41 76.9049 26.928C76.8556 27.446 76.7939 27.853 76.7199 28.149C76.6706 28.445 76.5966 28.667 76.4979 28.815C76.4239 28.9383 76.3129 29.0123 76.1649 29.037C76.0169 29.0617 75.8566 29.074 75.6839 29.074C75.2646 29.074 74.9316 29.0493 74.6849 29C74.4629 28.9753 74.2779 28.9013 74.1299 28.778C73.9819 28.63 73.8709 28.4203 73.7969 28.149C73.7476 27.8777 73.6983 27.5077 73.6489 27.039C73.5996 26.5703 73.5503 25.929 73.5009 25.115C73.4763 24.2763 73.4516 23.3513 73.4269 22.34C73.4023 21.304 73.3776 20.2063 73.3529 19.047C73.3529 17.8877 73.3529 16.7407 73.3529 15.606C73.3529 14.4713 73.3529 13.275 73.3529 12.017C73.3776 10.7343 73.4023 9.51333 73.4269 8.354C73.4516 7.17 73.4763 6.12167 73.5009 5.209C73.5256 4.27167 73.5626 3.581 73.6119 3.137C73.6613 2.49567 73.7723 1.94067 73.9449 1.472C74.1423 1.00333 74.5616 0.769 75.2029 0.769C75.6963 0.769 76.0909 0.941666 76.3869 1.287C76.7076 1.63233 76.8926 2.286 76.9419 3.248C76.9913 4.11133 77.0283 5.32 77.0529 6.874C77.1023 8.40333 77.1393 10.13 77.1639 12.054C77.5093 11.7827 77.9286 11.536 78.4219 11.314C78.9153 11.0673 79.4333 10.87 79.9759 10.722C80.5186 10.5493 81.0736 10.4137 81.6409 10.315C82.2083 10.2163 82.7386 10.167 83.2319 10.167C84.4159 10.167 85.4396 10.4507 86.3029 11.018C87.1909 11.5607 87.8939 12.35 88.4119 13.386C88.7573 14.052 89.0163 14.792 89.1889 15.606C89.3616 16.3953 89.4849 17.234 89.5589 18.122C89.5836 18.5167 89.6083 18.9113 89.6329 19.306C89.6576 19.676 89.6699 20.083 89.6699 20.527C89.6946 20.9463 89.7069 21.4273 89.7069 21.97C89.7069 22.5127 89.7069 23.154 89.7069 23.894C89.7069 24.634 89.6946 25.3247 89.6699 25.966C89.6453 26.5827 89.5713 27.1253 89.4479 27.594C89.3493 28.038 89.1766 28.3957 88.9299 28.667C88.6833 28.9137 88.3379 29.037 87.8939 29.037C87.2526 29.037 86.7716 28.8397 86.4509 28.445C86.1549 28.0257 86.0069 27.5323 86.0069 26.965C86.0069 26.9403 86.0069 26.6813 86.0069 26.188C86.0069 25.6947 85.9946 25.1273 85.9699 24.486C85.9699 23.82 85.9576 23.154 85.9329 22.488C85.9329 21.822 85.9206 21.2793 85.8959 20.86C85.8713 20.4653 85.8343 20.046 85.7849 19.602C85.7603 19.1333 85.7109 18.6647 85.6369 18.196C85.5876 17.7273 85.5136 17.2833 85.4149 16.864C85.3163 16.42 85.1929 16.0253 85.0449 15.68C84.6996 14.866 84.2679 14.348 83.7499 14.126C83.2319 13.904 82.6769 13.793 82.0849 13.793ZM102.497 10.241C103.903 10.241 105.161 10.463 106.271 10.907C107.381 11.3263 108.319 11.9307 109.083 12.72C109.873 13.5093 110.477 14.4713 110.896 15.606C111.316 16.7407 111.525 18.011 111.525 19.417C111.525 20.971 111.279 22.3647 110.785 23.598C110.317 24.8313 109.651 25.8797 108.787 26.743C107.949 27.6063 106.937 28.2723 105.753 28.741C104.594 29.2097 103.324 29.444 101.942 29.444C100.438 29.444 99.1057 29.185 97.9464 28.667C96.8117 28.149 95.8497 27.446 95.0604 26.558C94.2957 25.67 93.716 24.6463 93.3214 23.487C92.9267 22.3277 92.7294 21.1067 92.7294 19.824C92.7294 18.418 92.9514 17.1353 93.3954 15.976C93.864 14.792 94.5177 13.7807 95.3564 12.942C96.2197 12.0787 97.2557 11.4127 98.4644 10.944C99.673 10.4753 101.017 10.241 102.497 10.241ZM102.09 26.04C103.102 26.04 103.965 25.8673 104.68 25.522C105.396 25.152 105.975 24.671 106.419 24.079C106.888 23.487 107.221 22.821 107.418 22.081C107.64 21.3163 107.751 20.527 107.751 19.713C107.751 18.8743 107.64 18.0973 107.418 17.382C107.221 16.642 106.9 16.0007 106.456 15.458C106.037 14.9153 105.482 14.496 104.791 14.2C104.125 13.8793 103.324 13.719 102.386 13.719C101.424 13.719 100.586 13.8793 99.8704 14.2C99.155 14.5207 98.5507 14.9647 98.0574 15.532C97.5887 16.0747 97.231 16.7283 96.9844 17.493C96.7377 18.2577 96.6144 19.084 96.6144 19.972C96.6144 21.7727 97.0707 23.2403 97.9834 24.375C98.9207 25.485 100.29 26.04 102.09 26.04ZM118.868 34.328C118.868 34.7967 118.856 35.2407 118.831 35.66C118.806 36.104 118.72 36.4987 118.572 36.844C118.449 37.1893 118.251 37.4607 117.98 37.658C117.733 37.88 117.376 37.991 116.907 37.991C116.364 37.991 115.908 37.7937 115.538 37.399C115.193 37.029 114.995 36.363 114.946 35.401C114.921 34.7843 114.884 34.032 114.835 33.144C114.786 32.256 114.736 31.3187 114.687 30.332C114.662 29.3453 114.625 28.3587 114.576 27.372C114.551 26.3853 114.539 25.4727 114.539 24.634C114.539 21.748 114.736 19.3677 115.131 17.493C115.55 15.6183 116.167 14.126 116.981 13.016C117.795 11.906 118.794 11.129 119.978 10.685C121.187 10.241 122.58 10.019 124.159 10.019C125.417 10.019 126.601 10.2163 127.711 10.611C128.821 10.981 129.783 11.573 130.597 12.387C131.436 13.1763 132.102 14.2123 132.595 15.495C133.088 16.753 133.335 18.27 133.335 20.046C133.335 21.526 133.076 22.8333 132.558 23.968C132.065 25.1027 131.374 26.0647 130.486 26.854C129.598 27.6187 128.55 28.2107 127.341 28.63C126.157 29.0247 124.887 29.222 123.53 29.222C122.371 29.222 121.322 28.9877 120.385 28.519C119.472 28.0257 118.819 27.4953 118.424 26.928C118.547 28.3093 118.646 29.592 118.72 30.776C118.819 31.96 118.868 33.144 118.868 34.328ZM123.974 13.719C123.111 13.719 122.358 13.867 121.717 14.163C121.1 14.459 120.595 14.866 120.2 15.384C119.805 15.902 119.509 16.5187 119.312 17.234C119.139 17.9493 119.053 18.7263 119.053 19.565C119.053 20.379 119.127 21.156 119.275 21.896C119.448 22.6113 119.719 23.2403 120.089 23.783C120.459 24.3257 120.952 24.7573 121.569 25.078C122.186 25.3987 122.938 25.559 123.826 25.559C124.517 25.559 125.183 25.4727 125.824 25.3C126.465 25.1027 127.033 24.782 127.526 24.338C128.044 23.894 128.451 23.302 128.747 22.562C129.068 21.822 129.228 20.897 129.228 19.787C129.228 18.6523 129.068 17.7027 128.747 16.938C128.451 16.1487 128.044 15.5197 127.526 15.051C127.033 14.5577 126.465 14.2123 125.824 14.015C125.207 13.8177 124.591 13.719 123.974 13.719ZM143.135 9.686C143.653 9.686 144.307 9.73533 145.096 9.834C145.886 9.908 146.638 10.0683 147.353 10.315C148.069 10.537 148.685 10.8577 149.203 11.277C149.721 11.6963 149.98 12.2267 149.98 12.868C149.98 13.238 149.869 13.5587 149.647 13.83C149.45 14.1013 149.129 14.237 148.685 14.237C148.365 14.237 147.995 14.1877 147.575 14.089C147.181 13.9903 146.737 13.8793 146.243 13.756C145.775 13.608 145.257 13.4847 144.689 13.386C144.147 13.2873 143.567 13.238 142.95 13.238C141.914 13.238 141.063 13.3983 140.397 13.719C139.756 14.0397 139.435 14.5453 139.435 15.236C139.435 15.6307 139.546 15.9637 139.768 16.235C140.015 16.5063 140.336 16.753 140.73 16.975C141.15 17.1723 141.631 17.345 142.173 17.493C142.741 17.641 143.333 17.789 143.949 17.937C144.714 18.1343 145.466 18.3563 146.206 18.603C146.971 18.8497 147.649 19.195 148.241 19.639C148.833 20.0583 149.314 20.601 149.684 21.267C150.054 21.9083 150.239 22.71 150.239 23.672C150.239 25.4973 149.549 26.9527 148.167 28.038C146.786 29.0987 144.751 29.629 142.062 29.629C141.47 29.629 140.767 29.5797 139.953 29.481C139.139 29.407 138.375 29.2467 137.659 29C136.944 28.778 136.327 28.4573 135.809 28.038C135.316 27.594 135.069 27.0143 135.069 26.299C135.069 25.8057 135.18 25.4357 135.402 25.189C135.649 24.9177 135.945 24.782 136.29 24.782C136.562 24.782 136.845 24.8683 137.141 25.041C137.437 25.2137 137.795 25.3987 138.214 25.596C138.634 25.7933 139.139 25.9783 139.731 26.151C140.323 26.3237 141.051 26.41 141.914 26.41C142.235 26.41 142.654 26.3977 143.172 26.373C143.69 26.3237 144.196 26.2127 144.689 26.04C145.207 25.8673 145.639 25.633 145.984 25.337C146.354 25.0163 146.539 24.5723 146.539 24.005C146.539 23.561 146.416 23.191 146.169 22.895C145.923 22.5743 145.59 22.303 145.17 22.081C144.751 21.859 144.258 21.674 143.69 21.526C143.148 21.3533 142.568 21.1807 141.951 21.008C141.236 20.8107 140.508 20.5887 139.768 20.342C139.053 20.0953 138.399 19.7747 137.807 19.38C137.215 18.9853 136.734 18.492 136.364 17.9C135.994 17.2833 135.809 16.531 135.809 15.643C135.809 14.8043 135.982 14.0273 136.327 13.312C136.673 12.572 137.166 11.9307 137.807 11.388C138.449 10.8453 139.213 10.426 140.101 10.13C141.014 9.834 142.025 9.686 143.135 9.686Z" fill="white"/>
</svg>
